<!DOCTYPE svg PUBLIC "-//W3C//DTD SVG 1.1//EN" "http://www.w3.org/Graphics/SVG/1.1/DTD/svg11.dtd">
<!-- Uploaded to: SVG Repo, www.svgrepo.com, Transformed by: SVG Repo Mixer Tools -->
<svg height="800px" width="800px" version="1.1" id="Layer_1" xmlns="http://www.w3.org/2000/svg" xmlns:xlink="http://www.w3.org/1999/xlink" viewBox="0 0 512 512" xml:space="preserve" fill="#000000">
<g id="SVGRepo_bgCarrier" stroke-width="0"/>
<g id="SVGRepo_tracerCarrier" stroke-linecap="round" stroke-linejoin="round"/>
<g id="SVGRepo_iconCarrier"> <circle style="fill:#FEE36F;" cx="256" cy="256" r="256"/> <path style="fill:#D48B07;" d="M56.889,227.556l274.349,273.199c85.914-26.379,152.564-96.751,173.692-184.834L393.349,204.322 L56.889,227.556z"/> <path style="fill:#6AC9CC;" d="M311.48,170.667h-26.748v28.444c0,7.854-6.368,14.222-14.222,14.222l0,0 c-7.854,0-14.222-6.368-14.222-14.222v-28.444H56.889v56.889l112.621,52.405c16.832,7.832,29.765,22.231,35.535,39.877 c14.877,45.506,57.654,78.384,108.132,78.384c63.341,0,114.593-51.759,113.767-115.29 C426.134,220.408,374.012,170.667,311.48,170.667z"/> <g> <path style="fill:#3792CF;" d="M311.48,170.667h-0.028v227.521c0.576,0.009,1.146,0.034,1.724,0.034 c63.341,0,114.593-51.759,113.767-115.288C426.134,220.408,374.012,170.667,311.48,170.667z"/> <circle style="fill:#3792CF;" cx="313.182" cy="284.444" r="56.889"/> </g> <path style="fill:#117ac0;" d="M313.177,227.556c-0.578,0-1.15,0.026-1.724,0.043v113.69c0.574,0.017,1.146,0.043,1.724,0.043 c31.418,0,56.889-25.471,56.889-56.889S344.595,227.556,313.177,227.556z"/> </g>
</svg>